<svg xmlns="http://www.w3.org/2000/svg" xmlns:xlink="http://www.w3.org/1999/xlink" aria-hidden="true" role="img" class="iconify iconify--logos" width="31.88" height="32" preserveAspectRatio="xMidYMid meet" viewBox="0 0 256 257"><defs><linearGradient id="IconifyId1813088fe1fbc01fb466" x1="-.828%" x2="57.636%" y1="7.652%" y2="78.411%"><stop offset="0%" stop-color="#41D1FF"></stop><stop offset="100%" stop-color="#BD34FE"></stop></linearGradient><linearGradient id="IconifyId1813088fe1fbc01fb467" x1="43.376%" x2="50.316%" y1="2.242%" y2="89.03%"><stop offset="0%" stop-color="#FFEA83"></stop><stop offset="8.333%" stop-color="#FFDD35"></stop><stop offset="100%" stop-color="#FFA800"></stop></linearGradient></defs><path fill="url(#IconifyId1813088fe1fbc01fb466)" d="M255.153 37.938L134.897 252.976c-2.483 4.44-8.862 4.466-11.382.048L.875 37.958c-2.746-4.814 1.371-10.646 6.827-9.67l120.385 21.517a6.537 6.537 0 0 0 2.322-.004l117.867-21.483c5.438-.991 9.574 4.796 6.877 9.62Z"></path><path fill="url(#IconifyId1813088fe1fbc01fb467)" d="M185.432.063L96.44 17.501a3.268 3.268 0 0 0-2.634 3.014l-5.474 92.456a3.268 3.268 0 0 0 3.997 3.378l24.777-5.274c4.947-1.053 9.616 1.47 11.112 6.285l5.97 20.754c1.496 4.816 6.164 7.34 11.112 6.285l29.234-6.231c5.049-1.076 9.616 1.47 11.112 6.285l5.97 20.754c1.496 4.816 6.164 7.34 11.112 6.285l34.196-7.28c4.947-1.053 9.616 1.47 11.112 6.285l5.97 20.754c1.496 4.816 6.164 7.34 11.112 6.285l24.777-5.274c4.947-1.053 9.616 1.47 11.112 6.285l5.97 20.754c1.496 4.816 6.164 7.34 11.112 6.285l6.033-1.285c5.497-1.17 9.616 1.47 11.112 6.285l1.867 6.495c.677 2.365-.41 4.926-2.634 5.98L192.756 255.43c-2.483 1.053-5.433-.154-6.59-2.698l-67.047-129.675a3.268 3.268 0 0 0-5.97.154L39.432 252.723c-1.157 2.544-4.107 3.751-6.59 2.698L3.829 244.633c-5.497-1.17-7.192-7.73-3.997-11.378L85.464 75.135c2.483-2.544 6.59-1.157 7.747 2.544l67.047 129.675a3.268 3.268 0 0 0 5.97-.154l101.8-196.995c1.157-2.544-.677-5.98-3.997-5.98l-78.599-1.285Z"></path></svg>


